<?xml version="1.0" encoding="UTF-8"?>
<svg version="1.1" xmlns="http://www.w3.org/2000/svg" width="500" height="500">
<path d="M0 0 C1.4489566 -0.00639748 1.4489566 -0.00639748 2.92718506 -0.01292419 C4.51458244 -0.01224442 4.51458244 -0.01224442 6.13404846 -0.0115509 C7.24972198 -0.01490952 8.36539551 -0.01826813 9.51487732 -0.02172852 C13.21289678 -0.03124866 16.91087102 -0.03318211 20.60890198 -0.03425598 C23.17336038 -0.03746761 25.7378186 -0.04083161 28.30227661 -0.04434204 C33.68158979 -0.05033582 39.06088495 -0.05222441 44.44020081 -0.05158997 C50.65738754 -0.05098906 56.87448755 -0.06154394 63.09165233 -0.07733363 C69.07333849 -0.09198387 75.05497753 -0.09557808 81.03668404 -0.09498024 C83.58164385 -0.09616259 86.12660426 -0.10059855 88.67155266 -0.10831261 C92.2268334 -0.1180806 95.78188931 -0.11524707 99.33717346 -0.10920715 C100.39341415 -0.11482666 101.44965485 -0.12044617 102.53790283 -0.12623596 C103.99108917 -0.11994423 103.99108917 -0.11994423 105.47363281 -0.11352539 C106.31409873 -0.11407016 107.15456465 -0.11461493 108.02049923 -0.1151762 C110.54815149 0.16077006 112.14670999 0.79931472 114.30030823 2.13371277 C116.18345324 4.95264064 116.54706238 7.18550607 116.52735901 10.53507996 C116.52720795 11.39567017 116.52705688 12.25626038 116.52690125 13.14292908 C116.51657867 14.06285645 116.5062561 14.98278381 116.49562073 15.93058777 C116.49279083 16.87935791 116.48996094 17.82812805 116.48704529 18.8056488 C116.4758627 21.83179916 116.45076152 24.85765207 116.42530823 27.88371277 C116.41527595 29.93709391 116.40615053 31.99047969 116.39796448 34.04386902 C116.37592963 39.0739313 116.34141285 44.10377163 116.30030823 49.13371277 C113.66030823 49.13371277 111.02030823 49.13371277 108.30030823 49.13371277 C108.30030823 35.60371277 108.30030823 22.07371277 108.30030823 8.13371277 C71.67030823 8.13371277 35.04030823 8.13371277 -2.69969177 8.13371277 C-2.69969177 30.24371277 -2.69969177 52.35371277 -2.69969177 75.13371277 C27.99030823 75.13371277 58.68030823 75.13371277 90.30030823 75.13371277 C90.30030823 80.74371277 90.30030823 86.35371277 90.30030823 92.13371277 C80.73030823 92.13371277 71.16030823 92.13371277 61.30030823 92.13371277 C61.30030823 95.76371277 61.30030823 99.39371277 61.30030823 103.13371277 C62.09694885 103.02929871 62.89358948 102.92488464 63.71437073 102.81730652 C72.17468009 102.16888865 72.17468009 102.16888865 75.43312073 104.96183777 C78.27491575 109.10783824 79.62559402 112.04660442 79.30030823 117.13371277 C76.83869805 118.36451786 75.23533829 118.25415254 72.4834137 118.24723816 C71.48252716 118.24716263 70.48164063 118.2470871 69.45042419 118.24700928 C68.3670578 118.24184799 67.28369141 118.23668671 66.16749573 118.23136902 C65.06052338 118.22995407 63.95355103 118.22853912 62.81303406 118.2270813 C59.2670983 118.22147049 55.721225 118.20891613 52.17530823 118.19621277 C49.77556955 118.19119916 47.37582989 118.18663601 44.97608948 118.18254089 C39.08414098 118.17149755 33.19222906 118.15474887 27.30030823 118.13371277 C26.23268127 116.29264832 26.23268127 116.29264832 25.30030823 114.13371277 C26.38233948 111.59074402 26.38233948 111.59074402 28.11280823 108.94621277 C28.67612854 108.06578308 29.23944885 107.18535339 29.81983948 106.27824402 C31.30030823 104.13371277 31.30030823 104.13371277 32.30030823 103.13371277 C34.31995022 103.06127224 36.34197946 103.04994089 38.36280823 103.07121277 C39.46753479 103.08023621 40.57226135 103.08925964 41.71046448 103.09855652 C42.56511292 103.11015808 43.41976135 103.12175964 44.30030823 103.13371277 C44.30030823 99.50371277 44.30030823 95.87371277 44.30030823 92.13371277 C42.77631409 92.15466003 41.25231995 92.1756073 39.68214417 92.19718933 C34.03168624 92.2695515 28.38126933 92.31549932 22.73048401 92.35343933 C20.2841249 92.37356329 17.83781394 92.40086536 15.39161682 92.43547058 C11.87668482 92.4839524 8.36238839 92.50667405 4.84718323 92.52433777 C3.75226563 92.54498291 2.65734802 92.56562805 1.5292511 92.5868988 C0.50849487 92.58720093 -0.51226135 92.58750305 -1.56394958 92.58781433 C-2.46107666 92.59669678 -3.35820374 92.60557922 -4.28251648 92.61473083 C-7.65807734 91.94299397 -8.74234618 90.96292415 -10.69969177 88.13371277 C-11.0892714 85.33151955 -11.23723227 82.92378779 -11.20140076 80.12394714 C-11.20680374 79.32024185 -11.21220673 78.51653656 -11.21777344 77.68847656 C-11.23027066 75.03442955 -11.21376365 72.38146523 -11.19578552 69.72746277 C-11.19594049 67.88188114 -11.19742906 66.03629917 -11.20019531 64.1907196 C-11.20157975 60.32375188 -11.18901385 56.45715485 -11.16624451 52.59025574 C-11.13785973 47.63349975 -11.14059659 42.67735974 -11.15333462 37.72055817 C-11.16028959 33.90984333 -11.15250459 30.09927088 -11.14007759 26.28857422 C-11.13556132 24.46093288 -11.13522782 22.63327627 -11.13914299 20.80563354 C-11.14205344 18.25126312 -11.12555667 15.69774155 -11.10374451 13.14347839 C-11.10824615 12.38803238 -11.1127478 11.63258636 -11.11738586 10.85424805 C-11.07280811 7.71234342 -10.88686112 5.4748366 -9.36193848 2.69560242 C-6.50968617 0.01555297 -3.72524114 0.00743127 0 0 Z M50.30030823 79.13371277 C47.95057005 81.03126421 47.95057005 81.03126421 48.17530823 84.25871277 C48.21655823 85.20746277 48.25780823 86.15621277 48.30030823 87.13371277 C50.56632688 88.4241404 50.56632688 88.4241404 53.30030823 89.13371277 C55.62542294 87.87019225 55.62542294 87.87019225 57.30030823 86.13371277 C56.97030823 84.15371277 56.64030823 82.17371277 56.30030823 80.13371277 C53.39957642 79.45570243 53.39957642 79.45570243 50.30030823 79.13371277 Z " fill="#FFFFFF" transform="translate(162.69969177246094,126.86628723144531)"/>
<path d="M0 0 C1.68722672 -0.01925285 1.68722672 -0.01925285 3.40853882 -0.03889465 C4.62417511 -0.04628159 5.8398114 -0.05366852 7.09228516 -0.0612793 C8.34135651 -0.06935104 9.59042786 -0.07742279 10.87734985 -0.08573914 C13.52194935 -0.09957813 16.16642426 -0.11059549 18.81103516 -0.11816406 C22.1928187 -0.12923124 25.57394474 -0.16364119 28.95549583 -0.20333576 C32.1885269 -0.23581389 35.42161581 -0.24028116 38.65478516 -0.2487793 C39.86637299 -0.26628738 41.07796082 -0.28379547 42.32626343 -0.30183411 C43.45738556 -0.29890854 44.58850769 -0.29598297 45.75390625 -0.29296875 C47.24257706 -0.30176811 47.24257706 -0.30176811 48.76132202 -0.31074524 C52.31108834 0.31999151 53.98688599 1.63655111 56.50634766 4.17700195 C56.95414458 6.9974485 57.09475309 9.19977435 56.99462891 12.00512695 C56.98755417 12.75413269 56.98047943 13.50313843 56.97319031 14.27484131 C56.94526904 16.65992432 56.88254301 19.04263251 56.81884766 21.42700195 C56.79376148 23.04675964 56.77094886 24.66655424 56.75048828 26.28637695 C56.6954509 30.25082934 56.60920088 34.21351348 56.50634766 38.17700195 C54.52634766 38.83700195 52.54634766 39.49700195 50.50634766 40.17700195 C50.50634766 29.28700195 50.50634766 18.39700195 50.50634766 7.17700195 C32.35634766 7.17700195 14.20634766 7.17700195 -4.49365234 7.17700195 C-4.49365234 19.05700195 -4.49365234 30.93700195 -4.49365234 43.17700195 C12.99634766 43.17700195 30.48634766 43.17700195 48.50634766 43.17700195 C48.50634766 44.82700195 48.50634766 46.47700195 48.50634766 48.17700195 C47.84315521 48.16732391 47.17996277 48.15764587 46.49667358 48.14767456 C39.58542228 48.05664266 32.67645382 48.035593 25.76464844 48.05493164 C23.1864477 48.05298656 20.60819609 48.03327676 18.03027344 47.99536133 C14.32021165 47.94389226 10.61502251 47.95660352 6.90478516 47.98168945 C5.75456879 47.95195038 4.60435242 47.9222113 3.41928101 47.89157104 C-0.28361688 47.85100942 -0.28361688 47.85100942 -5.49365234 49.17700195 C-8.46365234 54.12700195 -8.46365234 54.12700195 -11.49365234 59.17700195 C-2.91365234 59.17700195 5.66634766 59.17700195 14.50634766 59.17700195 C14.83634766 57.52700195 15.16634766 55.87700195 15.50634766 54.17700195 C20.45634766 54.17700195 25.40634766 54.17700195 30.50634766 54.17700195 C31.00134766 56.65200195 31.00134766 56.65200195 31.50634766 59.17700195 C37.11634766 59.17700195 42.72634766 59.17700195 48.50634766 59.17700195 C48.50634766 61.15700195 48.50634766 63.13700195 48.50634766 65.17700195 C39.95285995 65.2464759 31.3994899 65.29979972 22.84578991 65.33243847 C18.87406138 65.34810251 14.90252572 65.36935394 10.9309082 65.40332031 C7.09891677 65.43588792 3.26711097 65.4538494 -0.56500816 65.46163368 C-2.02787893 65.46718191 -3.49073941 65.4780162 -4.95353127 65.49419212 C-7.0007393 65.51593274 -9.04717774 65.51897042 -11.09448242 65.51757812 C-12.84321404 65.52757088 -12.84321404 65.52757088 -14.62727356 65.5377655 C-17.49365234 65.17700195 -17.49365234 65.17700195 -19.39360046 63.65571594 C-19.75661758 63.16774033 -20.1196347 62.67976471 -20.49365234 62.17700195 C-19.72560393 59.25841799 -18.93988346 56.75020255 -17.07104492 54.34960938 C-10.57605076 45.81324745 -11.70345399 36.07526262 -11.80615234 25.86450195 C-11.81748198 23.12971977 -11.82008007 20.39561403 -11.80570984 17.6608429 C-11.79836456 15.96909401 -11.80639107 14.27718642 -11.83210754 12.58561707 C-11.82954289 7.98266506 -11.56480317 4.87092015 -8.49365234 1.17700195 C-5.40809084 0.14848145 -3.23521426 0.03214203 0 0 Z M20.50634766 58.17700195 C24.50634766 59.17700195 24.50634766 59.17700195 24.50634766 59.17700195 Z " fill="#FFFFFF" transform="translate(268.49365234375,179.822998046875)"/>
<path d="M0 0 C0.97388672 0.00386719 1.94777344 0.00773438 2.95117188 0.01171875 C3.96630859 0.03621094 4.98144531 0.06070313 6.02734375 0.0859375 C7.55584961 0.08787109 7.55584961 0.08787109 9.11523438 0.08984375 C16.68403389 0.18012764 16.68403389 0.18012764 18.96484375 2.4609375 C19.16474602 5.30633892 19.24461351 8.05231534 19.23046875 10.8984375 C19.2323822 11.73431396 19.23429565 12.57019043 19.23626709 13.43139648 C19.23762911 15.20003561 19.23393151 16.96868473 19.22558594 18.73730469 C19.2148865 21.45009744 19.22548051 24.16222794 19.23828125 26.875 C19.23695966 28.5911473 19.23439727 30.30729419 19.23046875 32.0234375 C19.23451721 32.83804443 19.23856567 33.65265137 19.24273682 34.49194336 C19.19476303 40.23101822 19.19476303 40.23101822 16.96484375 42.4609375 C13.15030089 42.91514587 9.30331861 42.78498526 5.46484375 42.7734375 C3.85802734 42.79760742 3.85802734 42.79760742 2.21875 42.82226562 C1.19652344 42.82291016 0.17429687 42.82355469 -0.87890625 42.82421875 C-1.81927734 42.82719971 -2.75964844 42.83018066 -3.72851562 42.83325195 C-4.87030273 42.6489563 -4.87030273 42.6489563 -6.03515625 42.4609375 C-8.49657838 38.7688043 -8.34121825 35.9257558 -8.3359375 31.65234375 C-8.34022263 30.88921371 -8.34450775 30.12608368 -8.34892273 29.33982849 C-8.35466207 27.72680655 -8.35516919 26.11375873 -8.35083008 24.50073242 C-8.34767215 22.0358451 -8.37112546 19.57216063 -8.39648438 17.10742188 C-8.39875766 15.53906401 -8.39946073 13.97070293 -8.3984375 12.40234375 C-8.40764725 11.66681778 -8.41685699 10.93129181 -8.42634583 10.17347717 C-8.39859851 7.09644128 -8.18894841 4.77508006 -6.82714844 1.9934082 C-4.45367443 -0.03633244 -3.09987002 -0.02851869 0 0 Z M-4.03515625 6.4609375 C-4.03515625 16.0309375 -4.03515625 25.6009375 -4.03515625 35.4609375 C2.56484375 35.4609375 9.16484375 35.4609375 15.96484375 35.4609375 C15.96484375 25.8909375 15.96484375 16.3209375 15.96484375 6.4609375 C9.36484375 6.4609375 2.76484375 6.4609375 -4.03515625 6.4609375 Z " fill="#FFFFFF" transform="translate(329.03515625,221.5390625)"/>
<path d="M0 0 C1.65 0 3.3 0 5 0 C5.33 2.31 5.66 4.62 6 7 C6.66 5.02 7.32 3.04 8 1 C9.65 1 11.3 1 13 1 C13.33 2.65 13.66 4.3 14 6 C14.66 4.02 15.32 2.04 16 0 C17.32 0 18.64 0 20 0 C20.35699374 18.28601253 20.35699374 18.28601253 18 23 C16.02 23 14.04 23 12 23 C11.34 21.35 10.68 19.7 10 18 C9.67 19.65 9.34 21.3 9 23 C7.02 23 5.04 23 3 23 C1.81990204 20.63980407 1.70232315 18.83904283 1.46484375 16.2109375 C1.37783203 15.26992188 1.29082031 14.32890625 1.20117188 13.359375 C1.11416016 12.37453125 1.02714844 11.3896875 0.9375 10.375 C0.84662109 9.38242187 0.75574219 8.38984375 0.66210938 7.3671875 C0.43781564 4.91176132 0.21726893 2.45605611 0 0 Z " fill="#FFFFFF" transform="translate(232,305)"/>
<path d="M0 0 C1.98 0 3.96 0 6 0 C7.32 2.97 8.64 5.94 10 9 C10.33 6.03 10.66 3.06 11 0 C12.65 0 14.3 0 16 0 C16 7.59 16 15.18 16 23 C14.02 23 12.04 23 10 23 C8.68 20.03 7.36 17.06 6 14 C5.67 16.97 5.34 19.94 5 23 C3.35 23 1.7 23 0 23 C0 15.41 0 7.82 0 0 Z " fill="#FFFFFF" transform="translate(177,267)"/>
<path d="M0 0 C10 0 10 0 13.125 1.6875 C16.03425333 6.82718088 16.0345343 12.23514681 15 18 C13.65234375 20.90625 13.65234375 20.90625 11 23 C7.37 23 3.74 23 0 23 C0 15.41 0 7.82 0 0 Z M6 4 C4.63467451 5.13701597 4.63467451 5.13701597 4.90234375 8.16015625 C4.91394531 9.44792969 4.92554688 10.73570312 4.9375 12.0625 C4.94652344 13.35285156 4.95554688 14.64320313 4.96484375 15.97265625 C4.97644531 16.97167969 4.98804688 17.97070312 5 19 C6.65 18.67 8.3 18.34 10 18 C10 14.04 10 10.08 10 6 C8.68 5.34 7.36 4.68 6 4 Z " fill="#FFFFFF" transform="translate(194,305)"/>
<path d="M0 0 C10 0 10 0 12.625 1.5625 C14.50467817 4.89465675 14.41086482 7.23373911 14 11 C13.01 12.485 13.01 12.485 12 14 C12.19097942 16.31033938 12.19097942 16.31033938 12.875 18.6875 C13.07867187 19.49574219 13.28234375 20.30398438 13.4921875 21.13671875 C13.65976563 21.75160156 13.82734375 22.36648438 14 23 C12.35 23 10.7 23 9 23 C8.34 20.03 7.68 17.06 7 14 C6.34 14 5.68 14 5 14 C5 16.97 5 19.94 5 23 C3.35 23 1.7 23 0 23 C0 15.41 0 7.82 0 0 Z M5 4 C5 6.31 5 8.62 5 11 C6.32 10.67 7.64 10.34 9 10 C9 8.02 9 6.04 9 4 C7.68 4 6.36 4 5 4 Z " fill="#FFFFFF" transform="translate(224,267)"/>
<path d="M0 0 C3.3 0 6.6 0 10 0 C13 3 13 3 13.1875 6 C13.125625 6.99 13.06375 7.98 13 9 C13 10.73082583 13.02226328 12.46258153 13.10546875 14.19140625 C13.13253906 14.97386719 13.15960938 15.75632812 13.1875 16.5625 C13.22230469 17.34753906 13.25710938 18.13257813 13.29296875 18.94140625 C13.19628906 19.62074219 13.09960938 20.30007813 13 21 C10 23 10 23 0 23 C0 15.41 0 7.82 0 0 Z M4 4 C4 5.65 4 7.3 4 9 C5.32 8.67 6.64 8.34 8 8 C8 6.68 8 5.36 8 4 C6.68 4 5.36 4 4 4 Z M4 13 C4 14.98 4 16.96 4 19 C5.65 18.67 7.3 18.34 9 18 C8.67 16.68 8.34 15.36 8 14 C6.68 13.67 5.36 13.34 4 13 Z " fill="#FFFFFF" transform="translate(268,305)"/>
<path d="M0 0 C2.15234375 1.5625 2.15234375 1.5625 4 4 C4.53125 7.53125 4.53125 7.53125 4.5 11.5 C4.5103125 12.8096875 4.520625 14.119375 4.53125 15.46875 C4 19 4 19 2.1875 21.4375 C-1.01302234 23.72358739 -3.16633697 23.54766615 -7 23 C-9.375 21.5 -9.375 21.5 -11 19 C-12.1075021 13.80325937 -12.39878025 9.19546949 -11 4 C-7.63531633 0.25078106 -4.99203083 -0.84970737 0 0 Z M-5 4 C-6.38226016 6.76452033 -6.09525387 9.0461363 -6.0625 12.125 C-6.05347656 13.22070312 -6.04445313 14.31640625 -6.03515625 15.4453125 C-6.02355469 16.28835938 -6.01195312 17.13140625 -6 18 C-4.05396726 18.59070014 -4.05396726 18.59070014 -2 19 C-0.66098208 17.88873341 -0.66098208 17.88873341 -0.90234375 15.05859375 C-0.91394531 13.86363281 -0.92554688 12.66867187 -0.9375 11.4375 C-0.94652344 10.23996094 -0.95554687 9.04242188 -0.96484375 7.80859375 C-0.97644531 6.88175781 -0.98804688 5.95492188 -1 5 C-2.32 4.67 -3.64 4.34 -5 4 Z " fill="#FFFFFF" transform="translate(296,267)"/>
<path d="M0 0 C2.3125 1.375 2.3125 1.375 4 4 C5.44064045 10.04648364 5.28042742 15.2389202 3 21 C0.45268958 23.54731042 -1.44515279 23.35323144 -4.9296875 23.55859375 C-8.22520651 22.66942541 -9.24370032 20.84481947 -11 18 C-12.05175927 12.13916214 -12.12606794 6.75534119 -8.875 1.6875 C-5.4870767 -0.30106368 -3.85742989 -0.73865679 0 0 Z M-4 4 C-6.25680034 5.830082 -6.25680034 5.830082 -6.23046875 8.53125 C-6.21628906 9.5109375 -6.20210937 10.490625 -6.1875 11.5 C-6.18105469 12.4796875 -6.17460937 13.459375 -6.16796875 14.46875 C-6.16440726 16.99369384 -6.16440726 16.99369384 -5 19 C-3.02463255 18.65213292 -3.02463255 18.65213292 -1 18 C0.16983345 15.6603331 0.1661241 14.16608473 0.1875 11.5625 C0.20167969 10.78003906 0.21585938 9.99757813 0.23046875 9.19140625 C0.14086064 6.70794013 0.14086064 6.70794013 -2 4 C-2.66 4 -3.32 4 -4 4 Z " fill="#FFFFFF" transform="translate(171,267)"/>
<path d="M0 0 C9 0 9 0 11.5625 0.9375 C13.92359445 4.32515725 13.42228434 8.00560551 13 12 C12.80921875 12.67675781 12.6184375 13.35351562 12.421875 14.05078125 C11.72833561 17.25519011 13.00402643 19.95349262 14 23 C12.35 23 10.7 23 9 23 C8.80664062 22.43410156 8.61328125 21.86820312 8.4140625 21.28515625 C8.15367187 20.55167969 7.89328125 19.81820313 7.625 19.0625 C7.36976563 18.33160156 7.11453125 17.60070312 6.8515625 16.84765625 C6.14728587 14.81317884 6.14728587 14.81317884 4 14 C4 16.97 4 19.94 4 23 C2.68 23 1.36 23 0 23 C0 15.41 0 7.82 0 0 Z M4 4 C4 6.31 4 8.62 4 11 C5.32 10.67 6.64 10.34 8 10 C8.33 8.35 8.66 6.7 9 5 C7.35 4.67 5.7 4.34 4 4 Z " fill="#FFFFFF" transform="translate(302,267)"/>
<path d="M0 0 C1.32 0 2.64 0 4 0 C4.33 5.94 4.66 11.88 5 18 C5.99 18 6.98 18 8 18 C8.495 9.09 8.495 9.09 9 0 C10.65 0 12.3 0 14 0 C14.08120751 2.89640118 14.14059421 5.79050912 14.1875 8.6875 C14.21263672 9.50412109 14.23777344 10.32074219 14.26367188 11.16210938 C14.32074992 15.86153504 14.28735404 19.31373108 11 23 C9.0625 23.59375 9.0625 23.59375 7 23.5 C6.319375 23.4896875 5.63875 23.479375 4.9375 23.46875 C2.43632363 22.86362669 1.61105479 21.99127262 0 20 C-0.44824219 17.93115234 -0.44824219 17.93115234 -0.546875 15.5859375 C-0.58683594 14.74289062 -0.62679687 13.89984375 -0.66796875 13.03125 C-0.69503906 12.1546875 -0.72210938 11.278125 -0.75 10.375 C-0.79253906 9.49070312 -0.83507812 8.60640625 -0.87890625 7.6953125 C-1.07504157 2.95900774 -1.07504157 2.95900774 -1 1 C-0.67 0.67 -0.34 0.34 0 0 Z " fill="#FFFFFF" transform="translate(240,267)"/>
<path d="M0 0 C4.29 0 8.58 0 13 0 C13 1.32 13 2.64 13 4 C10.36 4 7.72 4 5 4 C5 5.65 5 7.3 5 9 C7.31 9 9.62 9 12 9 C12 10.32 12 11.64 12 13 C9.69 13 7.38 13 5 13 C5 14.98 5 16.96 5 19 C7.64 19 10.28 19 13 19 C13 20.32 13 21.64 13 23 C8.71 23 4.42 23 0 23 C0 15.41 0 7.82 0 0 Z " fill="#FFFFFF" transform="translate(317,267)"/>
<path d="M0 0 C1.8871875 0.0309375 1.8871875 0.0309375 3.8125 0.0625 C4.1425 1.7125 4.4725 3.3625 4.8125 5.0625 C2.5025 5.0625 0.1925 5.0625 -2.1875 5.0625 C-2.5175 6.0525 -2.8475 7.0425 -3.1875 8.0625 C-2.07375 8.495625 -0.96 8.92875 0.1875 9.375 C3.8125 11.0625 3.8125 11.0625 5.8125 14.0625 C5.625 17.625 5.625 17.625 4.8125 21.0625 C0.75891576 23.76488949 -1.37060104 23.29187614 -6.1875 23.0625 C-6.8475 22.7325 -7.5075 22.4025 -8.1875 22.0625 C-8.1875 20.7425 -8.1875 19.4225 -8.1875 18.0625 C-5.2175 18.0625 -2.2475 18.0625 0.8125 18.0625 C0.17053957 14.98451256 0.17053957 14.98451256 -2 14.10546875 C-2.721875 13.82316406 -3.44375 13.54085938 -4.1875 13.25 C-8.04355134 11.44636308 -8.04355134 11.44636308 -9.3125 8.0625 C-9.18649303 5.03833281 -8.97988813 3.48222398 -7.1875 1.0625 C-4.43671116 0.14557039 -2.82801087 -0.04636083 0 0 Z " fill="#FFFFFF" transform="translate(291.1875,304.9375)"/>
<path d="M0 0 C0 1.65 0 3.3 0 5 C-2.64 5 -5.28 5 -8 5 C-7.67 5.99 -7.34 6.98 -7 8 C-5.865625 8.474375 -4.73125 8.94875 -3.5625 9.4375 C0 11 0 11 1.5 12.8125 C2.1936387 15.84716929 1.84256677 18.0186099 1 21 C-2.20380017 23.13586678 -3.01939967 23.23132175 -6.6875 23.125 C-7.49574219 23.10695313 -8.30398437 23.08890625 -9.13671875 23.0703125 C-9.75160156 23.04710937 -10.36648437 23.02390625 -11 23 C-11.33 21.35 -11.66 19.7 -12 18 C-9.03 18 -6.06 18 -3 18 C-3.33 17.01 -3.66 16.02 -4 15 C-6.31104818 13.94952356 -8.64583651 12.94992562 -11 12 C-13 10 -13 10 -13.375 7.125 C-13 4 -13 4 -11.5625 1.625 C-7.79880462 -0.76173366 -4.34043107 -0.33387931 0 0 Z " fill="#FFFFFF" transform="translate(207,267)"/>
<path d="M0 0 C0.33 1.65 0.66 3.3 1 5 C-1.31 5 -3.62 5 -6 5 C-6 5.99 -6 6.98 -6 8 C-4.865625 8.45375 -3.73125 8.9075 -2.5625 9.375 C1 11 1 11 2 13 C2.46243381 19.35846485 2.46243381 19.35846485 0.76953125 21.70703125 C-1.48989895 23.35796148 -2.79096827 23.341319 -5.5625 23.25 C-6.74005859 23.22679687 -6.74005859 23.22679687 -7.94140625 23.203125 C-10 23 -10 23 -12 22 C-12 20.68 -12 19.36 -12 18 C-9.36 18 -6.72 18 -4 18 C-4 17.01 -4 16.02 -4 15 C-6.64 13.68 -9.28 12.36 -12 11 C-12.48241206 3.64321608 -12.48241206 3.64321608 -10.5 1 C-6.87920862 -0.44831655 -3.88716564 -0.19435828 0 0 Z " fill="#FFFFFF" transform="translate(343,267)"/>
<path d="M0 0 C3.96 0 7.92 0 12 0 C12.33 1.32 12.66 2.64 13 4 C10.03 4 7.06 4 4 4 C4 5.65 4 7.3 4 9 C6.64 9 9.28 9 12 9 C12 10.32 12 11.64 12 13 C9.36 13 6.72 13 4 13 C4 14.98 4 16.96 4 19 C6.97 19 9.94 19 13 19 C13 20.32 13 21.64 13 23 C8.71 23 4.42 23 0 23 C0 15.41 0 7.82 0 0 Z " fill="#FFFFFF" transform="translate(254,305)"/>
<path d="M0 0 C3.96 0 7.92 0 12 0 C12.33 1.32 12.66 2.64 13 4 C10.03 4 7.06 4 4 4 C4 5.65 4 7.3 4 9 C6.64 9 9.28 9 12 9 C12 10.32 12 11.64 12 13 C9.36 13 6.72 13 4 13 C4 14.98 4 16.96 4 19 C6.97 19 9.94 19 13 19 C13 20.32 13 21.64 13 23 C8.71 23 4.42 23 0 23 C0 15.41 0 7.82 0 0 Z " fill="#FFFFFF" transform="translate(211,305)"/>
<path d="M0 0 C0.33 1.65 0.66 3.3 1 5 C-1.64 5 -4.28 5 -7 5 C-7 8.96 -7 12.92 -7 17 C-2.28941438 18.3721042 -2.28941438 18.3721042 1 17 C1.042721 18.66611905 1.04063832 20.33382885 1 22 C0 23 0 23 -3.8125 23.3125 C-6.99154601 23.27831671 -7.78669144 23.15861406 -10.4375 21.1875 C-13.35976954 17.09632265 -13.52505799 12.87290657 -13 8 C-10.23492186 0.88979906 -7.45205598 -0.28120966 0 0 Z " fill="#FFFFFF" transform="translate(268,267)"/>
<path d="M0 0 C0.66 0.33 1.32 0.66 2 1 C2 2.32 2 3.64 2 5 C-0.31 5 -2.62 5 -5 5 C-7.22923777 9.32734391 -6.92470553 12.28400182 -6 17 C-2.71303767 17.79953138 -1.28976808 18.09658936 2 17 C2.042721 18.66611905 2.04063832 20.33382885 2 22 C1 23 1 23 -2.8125 23.25 C-5.6567752 23.21431913 -6.87832297 23.0655184 -9.4375 21.6875 C-12.68821746 18.17672515 -12.26869858 13.95746126 -12.22265625 9.4453125 C-11.93470186 6.28286608 -11.04158753 4.41965929 -9 2 C-5.54337669 -0.30441554 -4.05142119 -0.25860135 0 0 Z " fill="#FFFFFF" transform="translate(157,267)"/>
<path d="M0 0 C0.99 0 1.98 0 3 0 C3.99 3.3 4.98 6.6 6 10 C6.99 6.7 7.98 3.4 9 0 C9.99 0 10.98 0 12 0 C12.99 3.3 13.98 6.6 15 10 C15.99 6.7 16.98 3.4 18 0 C18.99 0 19.98 0 21 0 C19.68 5.28 18.36 10.56 17 16 C15.68 16.33 14.36 16.66 13 17 C12.01 14.03 11.02 11.06 10 8 C9.01 10.97 8.02 13.94 7 17 C6.01 17 5.02 17 4 17 C2.68 11.39 1.36 5.78 0 0 Z " fill="#FFFFFF" transform="translate(277,338)"/>
<path d="M0 0 C4.62 0 9.24 0 14 0 C14 1.32 14 2.64 14 4 C12.35 4 10.7 4 9 4 C9 10.27 9 16.54 9 23 C7.68 23 6.36 23 5 23 C3.99073521 18.84373632 3.89760421 14.95634906 3.9375 10.6875 C3.94652344 9.43324219 3.95554687 8.17898438 3.96484375 6.88671875 C3.97644531 5.93410156 3.98804688 4.98148437 4 4 C2.68 4 1.36 4 0 4 C0 2.68 0 1.36 0 0 Z " fill="#FFFFFF" transform="translate(270,267)"/>
<path d="M0 0 C4.62 0 9.24 0 14 0 C14 1.32 14 2.64 14 4 C12.35 4 10.7 4 9 4 C9 10.27 9 16.54 9 23 C7.68 23 6.36 23 5 23 C5 16.73 5 10.46 5 4 C3.35 4 1.7 4 0 4 C0 2.68 0 1.36 0 0 Z " fill="#FFFFFF" transform="translate(209,267)"/>
<path d="M0 0 C1.423125 -0.061875 2.84625 -0.12375 4.3125 -0.1875 C5.51326172 -0.23970703 5.51326172 -0.23970703 6.73828125 -0.29296875 C9.51627459 0.06687495 10.29427215 0.83241353 12 3 C13.94574488 6.89148976 13.33352513 10.88030848 12.125 14.9375 C9.47143265 17.51302125 8.42543903 17.30227952 4.8125 17.3125 C2.4303125 17.1578125 2.4303125 17.1578125 0 17 C0 11.39 0 5.78 0 0 Z M3 2 C3 6.29 3 10.58 3 15 C4.65 15 6.3 15 8 15 C10.46324069 11.30513897 10.38991688 9.36706908 10 5 C8.89350331 2.97521537 8.89350331 2.97521537 7 2 C5.68 2 4.36 2 3 2 Z " fill="#FFFFFF" transform="translate(168,338)"/>
<path d="M0 0 C0.99 0 1.98 0 3 0 C3 1.98 3 3.96 3 6 C4.423125 6.12375 4.423125 6.12375 5.875 6.25 C9 7 9 7 10.4375 8.6875 C11.18468581 11.75926387 10.79336059 13.9587844 10 17 C9.34 17.66 8.68 18.32 8 19 C5.36 19 2.72 19 0 19 C0 12.73 0 6.46 0 0 Z M3 9 C3 11.64 3 14.28 3 17 C5.75641416 16.50243908 5.75641416 16.50243908 8 15 C8.04063832 13.33382885 8.042721 11.66611905 8 10 C6.35 9.67 4.7 9.34 3 9 Z " fill="#FFFFFF" transform="translate(322,336)"/>
<path d="M0 0 C2.31282587 3.46923881 2.42478586 4.92205575 2 9 C0.43467041 11.38918727 -0.75044008 11.91041439 -3.4375 12.875 C-6 13 -6 13 -8.25 11.875 C-10.45666636 9.51071461 -10.92307328 8.23092228 -11 5 C-8.22457217 -0.81518213 -6.19775819 -1.54943955 0 0 Z M-6 2 C-6.66 2.66 -7.32 3.32 -8 4 C-7.67958603 6.60280568 -7.67958603 6.60280568 -7 9 C-5.34385343 9.38218767 -3.67542976 9.71395102 -2 10 C-0.64381501 8.87465895 -0.64381501 8.87465895 -0.9375 5.9375 C-0.958125 4.968125 -0.97875 3.99875 -1 3 C-3.39719432 2.32041397 -3.39719432 2.32041397 -6 2 Z " fill="#FFFFFF" transform="translate(257,343)"/>
<path d="M0 0 C1.36125 0.37125 1.36125 0.37125 2.75 0.75 C3.08 2.73 3.41 4.71 3.75 6.75 C1.11 7.08 -1.53 7.41 -4.25 7.75 C-3.92 8.41 -3.59 9.07 -3.25 9.75 C-0.22065509 10.40772428 -0.22065509 10.40772428 2.75 10.75 C2.75 11.41 2.75 12.07 2.75 12.75 C-2.50490196 14.06372549 -2.50490196 14.06372549 -5.625 12.75 C-7.25 10.75 -7.25 10.75 -7.75 7.3125 C-7.25 3.75 -7.25 3.75 -5.625 1.25 C-3.25 -0.25 -3.25 -0.25 0 0 Z M-3.25 2.75 C-3.58 3.41 -3.91 4.07 -4.25 4.75 C-2.6 4.75 -0.95 4.75 0.75 4.75 C0.75 4.09 0.75 3.43 0.75 2.75 C-0.57 2.75 -1.89 2.75 -3.25 2.75 Z " fill="#FFFFFF" transform="translate(220.25,342.25)"/>
<path d="M0 0 C2 2 2 2 2 6 C-0.97 6 -3.94 6 -7 6 C-5.29107501 9.31460705 -5.29107501 9.31460705 -1.875 9.6875 C-0.92625 9.790625 0.0225 9.89375 1 10 C1 10.66 1 11.32 1 12 C-4.625 13.125 -4.625 13.125 -8 12 C-9.595925 8.80815 -9.50915455 5.4650796 -9 2 C-6.2178907 -1.40035581 -4.02624767 -1.37740052 0 0 Z M-5 2 C-5.33 2.66 -5.66 3.32 -6 4 C-4.35 4 -2.7 4 -1 4 C-1 3.34 -1 2.68 -1 2 C-2.32 2 -3.64 2 -5 2 Z " fill="#FFFFFF" transform="translate(314,343)"/>
<path d="M0 0 C6.625 -0.25 6.625 -0.25 10 2 C10.29296875 4.6015625 10.29296875 4.6015625 10.1875 7.625 C10.16042969 8.62789063 10.13335937 9.63078125 10.10546875 10.6640625 C10.07066406 11.43492187 10.03585938 12.20578125 10 13 C9.34 13 8.68 13 8 13 C7.67 9.7 7.34 6.4 7 3 C5.68 3 4.36 3 3 3 C3 6.3 3 9.6 3 13 C2.01 13 1.02 13 0 13 C0 8.71 0 4.42 0 0 Z " fill="#FFFFFF" transform="translate(230,342)"/>
<path d="M0 0 C0.763125 0.20625 1.52625 0.4125 2.3125 0.625 C2.3125 1.285 2.3125 1.945 2.3125 2.625 C0.6625 2.955 -0.9875 3.285 -2.6875 3.625 C-0.7075 4.945 1.2725 6.265 3.3125 7.625 C2.9825 9.275 2.6525 10.925 2.3125 12.625 C-3.3125 13.75 -3.3125 13.75 -6.6875 12.625 C-6.6875 11.965 -6.6875 11.305 -6.6875 10.625 C-4.7075 10.295 -2.7275 9.965 -0.6875 9.625 C-3.46010299 7.68701737 -3.46010299 7.68701737 -5.6875 6.625 C-5.875 4.25 -5.875 4.25 -5.6875 1.625 C-2.6875 -0.375 -2.6875 -0.375 0 0 Z " fill="#FFFFFF" transform="translate(203.6875,342.375)"/>
<path d="M0 0 C0.99 0 1.98 0 3 0 C3 4.29 3 8.58 3 13 C2.01 13 1.02 13 0 13 C0 8.71 0 4.42 0 0 Z " fill="#FFFFFF" transform="translate(188,342)"/>
<path d="M0 0 C2.64 0 5.28 0 8 0 C8 0.99 8 1.98 8 3 C5.03 3 2.06 3 -1 3 C-0.67 2.01 -0.34 1.02 0 0 Z " fill="#FFFFFF" transform="translate(232,338)"/>
<path d="M0 0 C0.99 0 1.98 0 3 0 C3 0.99 3 1.98 3 3 C2.01 3 1.02 3 0 3 C0 2.01 0 1.02 0 0 Z " fill="#FFFFFF" transform="translate(188,337)"/>
</svg>
